<mxfile host="app.diagrams.net" modified="2021-06-21T05:04:50.150Z" agent="5.0 (Windows)" etag="6hUGTzR4mVw5I55WnXTz" version="14.8.0" type="github">
  <diagram id="Zt-Wdsxh2AnEjAXwIarj" name="Page-1">
    <mxGraphModel dx="1316" dy="865" grid="1" gridSize="10" guides="1" tooltips="1" connect="1" arrows="1" fold="1" page="1" pageScale="1" pageWidth="1700" pageHeight="1100" math="0" shadow="0">
      <root>
        <mxCell id="0" />
        <mxCell id="1" parent="0" />
        <mxCell id="nUtwPCLg_D4EzGsEK1XT-14" value="" style="group" vertex="1" connectable="0" parent="1">
          <mxGeometry x="240" y="190" width="30" height="120" as="geometry" />
        </mxCell>
        <mxCell id="nUtwPCLg_D4EzGsEK1XT-8" value="" style="shape=trapezoid;perimeter=trapezoidPerimeter;whiteSpace=wrap;html=1;fixedSize=1;rotation=90;" vertex="1" parent="nUtwPCLg_D4EzGsEK1XT-14">
          <mxGeometry x="-40" y="50" width="120" height="20" as="geometry" />
        </mxCell>
        <mxCell id="nUtwPCLg_D4EzGsEK1XT-10" value="" style="rounded=0;whiteSpace=wrap;html=1;" vertex="1" parent="nUtwPCLg_D4EzGsEK1XT-14">
          <mxGeometry y="20" width="10" height="10" as="geometry" />
        </mxCell>
        <mxCell id="nUtwPCLg_D4EzGsEK1XT-13" value="" style="rounded=0;whiteSpace=wrap;html=1;" vertex="1" parent="nUtwPCLg_D4EzGsEK1XT-14">
          <mxGeometry y="90" width="10" height="10" as="geometry" />
        </mxCell>
        <mxCell id="nUtwPCLg_D4EzGsEK1XT-16" style="edgeStyle=orthogonalEdgeStyle;rounded=0;orthogonalLoop=1;jettySize=auto;html=1;entryX=0;entryY=0.5;entryDx=0;entryDy=0;exitX=1;exitY=0.5;exitDx=0;exitDy=0;" edge="1" parent="1" source="nUtwPCLg_D4EzGsEK1XT-18" target="nUtwPCLg_D4EzGsEK1XT-17">
          <mxGeometry relative="1" as="geometry">
            <mxPoint x="20" y="281" as="sourcePoint" />
            <mxPoint x="160" y="280" as="targetPoint" />
          </mxGeometry>
        </mxCell>
        <mxCell id="nUtwPCLg_D4EzGsEK1XT-18" value="a_i[NBitsA]" style="text;html=1;align=center;verticalAlign=middle;whiteSpace=wrap;rounded=0;strokeColor=#000000;" vertex="1" parent="1">
          <mxGeometry y="270" width="90" height="20" as="geometry" />
        </mxCell>
        <mxCell id="nUtwPCLg_D4EzGsEK1XT-19" value="NBitsA" style="group" vertex="1" connectable="0" parent="1">
          <mxGeometry x="160" y="260" width="40" height="100" as="geometry" />
        </mxCell>
        <mxCell id="nUtwPCLg_D4EzGsEK1XT-1" value="" style="rounded=0;whiteSpace=wrap;html=1;container=0;" vertex="1" parent="nUtwPCLg_D4EzGsEK1XT-19">
          <mxGeometry width="40" height="100" as="geometry" />
        </mxCell>
        <mxCell id="nUtwPCLg_D4EzGsEK1XT-2" value="" style="triangle;whiteSpace=wrap;html=1;container=0;" vertex="1" parent="nUtwPCLg_D4EzGsEK1XT-19">
          <mxGeometry y="70" width="20" height="30" as="geometry" />
        </mxCell>
        <mxCell id="nUtwPCLg_D4EzGsEK1XT-17" value="" style="rounded=0;whiteSpace=wrap;html=1;container=0;" vertex="1" parent="nUtwPCLg_D4EzGsEK1XT-19">
          <mxGeometry y="15" width="10" height="10" as="geometry" />
        </mxCell>
        <mxCell id="nUtwPCLg_D4EzGsEK1XT-84" value="NBitsA" style="text;html=1;strokeColor=none;fillColor=none;align=center;verticalAlign=middle;whiteSpace=wrap;rounded=0;" vertex="1" parent="nUtwPCLg_D4EzGsEK1XT-19">
          <mxGeometry y="40" width="40" height="20" as="geometry" />
        </mxCell>
        <mxCell id="nUtwPCLg_D4EzGsEK1XT-20" value="" style="group" vertex="1" connectable="0" parent="1">
          <mxGeometry x="160" y="460" width="40" height="100" as="geometry" />
        </mxCell>
        <mxCell id="nUtwPCLg_D4EzGsEK1XT-21" value="" style="rounded=0;whiteSpace=wrap;html=1;container=0;" vertex="1" parent="nUtwPCLg_D4EzGsEK1XT-20">
          <mxGeometry width="40" height="100" as="geometry" />
        </mxCell>
        <mxCell id="nUtwPCLg_D4EzGsEK1XT-22" value="" style="triangle;whiteSpace=wrap;html=1;container=0;" vertex="1" parent="nUtwPCLg_D4EzGsEK1XT-20">
          <mxGeometry y="70" width="20" height="30" as="geometry" />
        </mxCell>
        <mxCell id="nUtwPCLg_D4EzGsEK1XT-23" value="" style="rounded=0;whiteSpace=wrap;html=1;container=0;" vertex="1" parent="nUtwPCLg_D4EzGsEK1XT-20">
          <mxGeometry y="15" width="10" height="10" as="geometry" />
        </mxCell>
        <mxCell id="nUtwPCLg_D4EzGsEK1XT-25" style="edgeStyle=orthogonalEdgeStyle;rounded=0;orthogonalLoop=1;jettySize=auto;html=1;exitX=1;exitY=0.5;exitDx=0;exitDy=0;entryX=0;entryY=0.5;entryDx=0;entryDy=0;" edge="1" parent="1" source="nUtwPCLg_D4EzGsEK1XT-24" target="nUtwPCLg_D4EzGsEK1XT-23">
          <mxGeometry relative="1" as="geometry" />
        </mxCell>
        <mxCell id="nUtwPCLg_D4EzGsEK1XT-40" style="edgeStyle=orthogonalEdgeStyle;rounded=0;orthogonalLoop=1;jettySize=auto;html=1;exitX=1;exitY=0.5;exitDx=0;exitDy=0;entryX=0;entryY=0.5;entryDx=0;entryDy=0;" edge="1" parent="1" source="nUtwPCLg_D4EzGsEK1XT-24" target="nUtwPCLg_D4EzGsEK1XT-37">
          <mxGeometry relative="1" as="geometry">
            <Array as="points">
              <mxPoint x="140" y="480" />
              <mxPoint x="140" y="415" />
            </Array>
          </mxGeometry>
        </mxCell>
        <mxCell id="nUtwPCLg_D4EzGsEK1XT-24" value="b_i[NBitsB]" style="text;html=1;align=center;verticalAlign=middle;whiteSpace=wrap;rounded=0;strokeColor=#000000;" vertex="1" parent="1">
          <mxGeometry y="470" width="90" height="20" as="geometry" />
        </mxCell>
        <mxCell id="nUtwPCLg_D4EzGsEK1XT-26" value="" style="group" vertex="1" connectable="0" parent="1">
          <mxGeometry x="640" y="430" width="40" height="100" as="geometry" />
        </mxCell>
        <mxCell id="nUtwPCLg_D4EzGsEK1XT-27" value="" style="rounded=0;whiteSpace=wrap;html=1;container=0;" vertex="1" parent="nUtwPCLg_D4EzGsEK1XT-26">
          <mxGeometry width="40" height="100" as="geometry" />
        </mxCell>
        <mxCell id="nUtwPCLg_D4EzGsEK1XT-28" value="" style="triangle;whiteSpace=wrap;html=1;container=0;" vertex="1" parent="nUtwPCLg_D4EzGsEK1XT-26">
          <mxGeometry y="70" width="20" height="30" as="geometry" />
        </mxCell>
        <mxCell id="nUtwPCLg_D4EzGsEK1XT-29" value="" style="rounded=0;whiteSpace=wrap;html=1;container=0;" vertex="1" parent="nUtwPCLg_D4EzGsEK1XT-26">
          <mxGeometry y="15" width="10" height="10" as="geometry" />
        </mxCell>
        <mxCell id="nUtwPCLg_D4EzGsEK1XT-30" style="edgeStyle=orthogonalEdgeStyle;rounded=0;orthogonalLoop=1;jettySize=auto;html=1;exitX=1;exitY=0.25;exitDx=0;exitDy=0;entryX=0;entryY=0.5;entryDx=0;entryDy=0;" edge="1" parent="1" source="nUtwPCLg_D4EzGsEK1XT-1" target="nUtwPCLg_D4EzGsEK1XT-13">
          <mxGeometry relative="1" as="geometry">
            <mxPoint x="240" y="285" as="targetPoint" />
          </mxGeometry>
        </mxCell>
        <mxCell id="nUtwPCLg_D4EzGsEK1XT-32" style="edgeStyle=orthogonalEdgeStyle;rounded=0;orthogonalLoop=1;jettySize=auto;html=1;exitX=1;exitY=0.5;exitDx=0;exitDy=0;entryX=0;entryY=0.5;entryDx=0;entryDy=0;" edge="1" parent="1" source="nUtwPCLg_D4EzGsEK1XT-18" target="nUtwPCLg_D4EzGsEK1XT-10">
          <mxGeometry relative="1" as="geometry">
            <Array as="points">
              <mxPoint x="130" y="280" />
              <mxPoint x="130" y="215" />
            </Array>
          </mxGeometry>
        </mxCell>
        <mxCell id="nUtwPCLg_D4EzGsEK1XT-44" style="edgeStyle=orthogonalEdgeStyle;rounded=0;orthogonalLoop=1;jettySize=auto;html=1;exitX=1;exitY=0.5;exitDx=0;exitDy=0;exitPerimeter=0;entryX=0;entryY=0.5;entryDx=0;entryDy=0;" edge="1" parent="1" source="nUtwPCLg_D4EzGsEK1XT-33" target="nUtwPCLg_D4EzGsEK1XT-43">
          <mxGeometry relative="1" as="geometry" />
        </mxCell>
        <mxCell id="nUtwPCLg_D4EzGsEK1XT-33" value="" style="verticalLabelPosition=bottom;verticalAlign=top;html=1;shape=mxgraph.flowchart.or;strokeColor=#000000;" vertex="1" parent="1">
          <mxGeometry x="300" y="310" width="70" height="70" as="geometry" />
        </mxCell>
        <mxCell id="nUtwPCLg_D4EzGsEK1XT-34" style="edgeStyle=orthogonalEdgeStyle;rounded=0;orthogonalLoop=1;jettySize=auto;html=1;exitX=0.5;exitY=0;exitDx=0;exitDy=0;entryX=0.5;entryY=0;entryDx=0;entryDy=0;entryPerimeter=0;" edge="1" parent="1" source="nUtwPCLg_D4EzGsEK1XT-8" target="nUtwPCLg_D4EzGsEK1XT-33">
          <mxGeometry relative="1" as="geometry" />
        </mxCell>
        <mxCell id="nUtwPCLg_D4EzGsEK1XT-35" value="" style="group" vertex="1" connectable="0" parent="1">
          <mxGeometry x="240" y="390" width="30" height="120" as="geometry" />
        </mxCell>
        <mxCell id="nUtwPCLg_D4EzGsEK1XT-36" value="" style="shape=trapezoid;perimeter=trapezoidPerimeter;whiteSpace=wrap;html=1;fixedSize=1;rotation=90;" vertex="1" parent="nUtwPCLg_D4EzGsEK1XT-35">
          <mxGeometry x="-40" y="50" width="120" height="20" as="geometry" />
        </mxCell>
        <mxCell id="nUtwPCLg_D4EzGsEK1XT-37" value="" style="rounded=0;whiteSpace=wrap;html=1;" vertex="1" parent="nUtwPCLg_D4EzGsEK1XT-35">
          <mxGeometry y="20" width="10" height="10" as="geometry" />
        </mxCell>
        <mxCell id="nUtwPCLg_D4EzGsEK1XT-38" value="" style="rounded=0;whiteSpace=wrap;html=1;" vertex="1" parent="nUtwPCLg_D4EzGsEK1XT-35">
          <mxGeometry y="90" width="10" height="10" as="geometry" />
        </mxCell>
        <mxCell id="nUtwPCLg_D4EzGsEK1XT-39" style="edgeStyle=orthogonalEdgeStyle;rounded=0;orthogonalLoop=1;jettySize=auto;html=1;exitX=1;exitY=0.25;exitDx=0;exitDy=0;entryX=0;entryY=0.5;entryDx=0;entryDy=0;" edge="1" parent="1" source="nUtwPCLg_D4EzGsEK1XT-21" target="nUtwPCLg_D4EzGsEK1XT-38">
          <mxGeometry relative="1" as="geometry" />
        </mxCell>
        <mxCell id="nUtwPCLg_D4EzGsEK1XT-41" style="edgeStyle=orthogonalEdgeStyle;rounded=0;orthogonalLoop=1;jettySize=auto;html=1;exitX=0.5;exitY=0;exitDx=0;exitDy=0;entryX=0.5;entryY=1;entryDx=0;entryDy=0;entryPerimeter=0;" edge="1" parent="1" source="nUtwPCLg_D4EzGsEK1XT-36" target="nUtwPCLg_D4EzGsEK1XT-33">
          <mxGeometry relative="1" as="geometry" />
        </mxCell>
        <mxCell id="nUtwPCLg_D4EzGsEK1XT-59" style="edgeStyle=orthogonalEdgeStyle;rounded=0;orthogonalLoop=1;jettySize=auto;html=1;exitX=0.5;exitY=1;exitDx=0;exitDy=0;entryX=0.5;entryY=0;entryDx=0;entryDy=0;entryPerimeter=0;" edge="1" parent="1" source="nUtwPCLg_D4EzGsEK1XT-43" target="nUtwPCLg_D4EzGsEK1XT-57">
          <mxGeometry relative="1" as="geometry" />
        </mxCell>
        <mxCell id="nUtwPCLg_D4EzGsEK1XT-60" style="edgeStyle=orthogonalEdgeStyle;rounded=0;orthogonalLoop=1;jettySize=auto;html=1;exitX=1;exitY=0.5;exitDx=0;exitDy=0;entryX=0;entryY=0.5;entryDx=0;entryDy=0;" edge="1" parent="1" source="nUtwPCLg_D4EzGsEK1XT-43" target="nUtwPCLg_D4EzGsEK1XT-50">
          <mxGeometry relative="1" as="geometry">
            <mxPoint x="680" y="345" as="targetPoint" />
          </mxGeometry>
        </mxCell>
        <mxCell id="nUtwPCLg_D4EzGsEK1XT-43" value="sign extend" style="text;html=1;fillColor=none;align=center;verticalAlign=middle;whiteSpace=wrap;rounded=0;strokeColor=#000000;" vertex="1" parent="1">
          <mxGeometry x="390" y="335" width="80" height="20" as="geometry" />
        </mxCell>
        <mxCell id="nUtwPCLg_D4EzGsEK1XT-56" value="" style="group" vertex="1" connectable="0" parent="1">
          <mxGeometry x="825" y="321" width="30" height="170" as="geometry" />
        </mxCell>
        <mxCell id="nUtwPCLg_D4EzGsEK1XT-49" value="" style="shape=trapezoid;perimeter=trapezoidPerimeter;whiteSpace=wrap;html=1;fixedSize=1;strokeColor=#000000;rotation=90;" vertex="1" parent="nUtwPCLg_D4EzGsEK1XT-56">
          <mxGeometry x="-65" y="75" width="170" height="20" as="geometry" />
        </mxCell>
        <mxCell id="nUtwPCLg_D4EzGsEK1XT-50" value="" style="rounded=0;whiteSpace=wrap;html=1;strokeColor=#000000;" vertex="1" parent="nUtwPCLg_D4EzGsEK1XT-56">
          <mxGeometry y="19" width="10" height="10" as="geometry" />
        </mxCell>
        <mxCell id="nUtwPCLg_D4EzGsEK1XT-51" value="" style="rounded=0;whiteSpace=wrap;html=1;strokeColor=#000000;" vertex="1" parent="nUtwPCLg_D4EzGsEK1XT-56">
          <mxGeometry y="60" width="10" height="10" as="geometry" />
        </mxCell>
        <mxCell id="nUtwPCLg_D4EzGsEK1XT-52" value="" style="rounded=0;whiteSpace=wrap;html=1;strokeColor=#000000;" vertex="1" parent="nUtwPCLg_D4EzGsEK1XT-56">
          <mxGeometry y="100" width="10" height="10" as="geometry" />
        </mxCell>
        <mxCell id="nUtwPCLg_D4EzGsEK1XT-55" value="" style="rounded=0;whiteSpace=wrap;html=1;strokeColor=#000000;" vertex="1" parent="nUtwPCLg_D4EzGsEK1XT-56">
          <mxGeometry y="138" width="10" height="10" as="geometry" />
        </mxCell>
        <mxCell id="nUtwPCLg_D4EzGsEK1XT-58" style="edgeStyle=orthogonalEdgeStyle;rounded=0;orthogonalLoop=1;jettySize=auto;html=1;exitX=1;exitY=0.5;exitDx=0;exitDy=0;exitPerimeter=0;entryX=0;entryY=0.5;entryDx=0;entryDy=0;" edge="1" parent="1" source="nUtwPCLg_D4EzGsEK1XT-57" target="nUtwPCLg_D4EzGsEK1XT-65">
          <mxGeometry relative="1" as="geometry">
            <Array as="points">
              <mxPoint x="500" y="441" />
              <mxPoint x="500" y="485" />
            </Array>
          </mxGeometry>
        </mxCell>
        <mxCell id="nUtwPCLg_D4EzGsEK1XT-57" value="" style="verticalLabelPosition=bottom;verticalAlign=top;html=1;shape=mxgraph.flowchart.summing_function;strokeColor=#000000;" vertex="1" parent="1">
          <mxGeometry x="395" y="406" width="70" height="70" as="geometry" />
        </mxCell>
        <mxCell id="nUtwPCLg_D4EzGsEK1XT-61" style="edgeStyle=orthogonalEdgeStyle;rounded=0;orthogonalLoop=1;jettySize=auto;html=1;entryX=0;entryY=0.5;entryDx=0;entryDy=0;exitX=1;exitY=0.5;exitDx=0;exitDy=0;exitPerimeter=0;" edge="1" parent="1" source="nUtwPCLg_D4EzGsEK1XT-57" target="nUtwPCLg_D4EzGsEK1XT-51">
          <mxGeometry relative="1" as="geometry">
            <mxPoint x="530" y="439" as="sourcePoint" />
            <Array as="points">
              <mxPoint x="500" y="441" />
              <mxPoint x="500" y="386" />
            </Array>
          </mxGeometry>
        </mxCell>
        <mxCell id="nUtwPCLg_D4EzGsEK1XT-62" value="" style="group" vertex="1" connectable="0" parent="1">
          <mxGeometry x="550" y="390" width="30" height="120" as="geometry" />
        </mxCell>
        <mxCell id="nUtwPCLg_D4EzGsEK1XT-63" value="" style="shape=trapezoid;perimeter=trapezoidPerimeter;whiteSpace=wrap;html=1;fixedSize=1;rotation=90;" vertex="1" parent="nUtwPCLg_D4EzGsEK1XT-62">
          <mxGeometry x="-40" y="50" width="120" height="20" as="geometry" />
        </mxCell>
        <mxCell id="nUtwPCLg_D4EzGsEK1XT-64" value="" style="rounded=0;whiteSpace=wrap;html=1;" vertex="1" parent="nUtwPCLg_D4EzGsEK1XT-62">
          <mxGeometry y="20" width="10" height="10" as="geometry" />
        </mxCell>
        <mxCell id="nUtwPCLg_D4EzGsEK1XT-65" value="" style="rounded=0;whiteSpace=wrap;html=1;" vertex="1" parent="nUtwPCLg_D4EzGsEK1XT-62">
          <mxGeometry y="90" width="10" height="10" as="geometry" />
        </mxCell>
        <mxCell id="nUtwPCLg_D4EzGsEK1XT-66" style="edgeStyle=orthogonalEdgeStyle;rounded=0;orthogonalLoop=1;jettySize=auto;html=1;exitX=0.5;exitY=0;exitDx=0;exitDy=0;entryX=0;entryY=0.5;entryDx=0;entryDy=0;" edge="1" parent="1" source="nUtwPCLg_D4EzGsEK1XT-63" target="nUtwPCLg_D4EzGsEK1XT-29">
          <mxGeometry relative="1" as="geometry" />
        </mxCell>
        <mxCell id="nUtwPCLg_D4EzGsEK1XT-70" style="edgeStyle=orthogonalEdgeStyle;rounded=0;orthogonalLoop=1;jettySize=auto;html=1;exitX=0.5;exitY=1;exitDx=0;exitDy=0;entryX=0;entryY=0.5;entryDx=0;entryDy=0;exitPerimeter=0;" edge="1" parent="1" source="nUtwPCLg_D4EzGsEK1XT-91" target="nUtwPCLg_D4EzGsEK1XT-64">
          <mxGeometry relative="1" as="geometry">
            <mxPoint x="470" y="250" as="sourcePoint" />
            <Array as="points">
              <mxPoint x="520" y="415" />
            </Array>
          </mxGeometry>
        </mxCell>
        <mxCell id="nUtwPCLg_D4EzGsEK1XT-71" style="edgeStyle=orthogonalEdgeStyle;rounded=0;orthogonalLoop=1;jettySize=auto;html=1;exitX=1;exitY=0.25;exitDx=0;exitDy=0;entryX=0;entryY=0.5;entryDx=0;entryDy=0;" edge="1" parent="1" source="nUtwPCLg_D4EzGsEK1XT-27" target="nUtwPCLg_D4EzGsEK1XT-52">
          <mxGeometry relative="1" as="geometry">
            <Array as="points">
              <mxPoint x="700" y="455" />
              <mxPoint x="700" y="426" />
            </Array>
          </mxGeometry>
        </mxCell>
        <mxCell id="nUtwPCLg_D4EzGsEK1XT-74" style="edgeStyle=orthogonalEdgeStyle;rounded=0;orthogonalLoop=1;jettySize=auto;html=1;exitX=1;exitY=0.5;exitDx=0;exitDy=0;entryX=0;entryY=0.5;entryDx=0;entryDy=0;" edge="1" parent="1" source="nUtwPCLg_D4EzGsEK1XT-72" target="nUtwPCLg_D4EzGsEK1XT-55">
          <mxGeometry relative="1" as="geometry" />
        </mxCell>
        <mxCell id="nUtwPCLg_D4EzGsEK1XT-72" value="&lt;div&gt;shift&lt;/div&gt;&lt;div&gt;saturate&lt;/div&gt;&lt;div&gt;extend&lt;br&gt;&lt;/div&gt;" style="text;html=1;fillColor=none;align=center;verticalAlign=middle;whiteSpace=wrap;rounded=0;strokeColor=#000000;" vertex="1" parent="1">
          <mxGeometry x="718" y="480" width="70" height="50" as="geometry" />
        </mxCell>
        <mxCell id="nUtwPCLg_D4EzGsEK1XT-73" style="edgeStyle=orthogonalEdgeStyle;rounded=0;orthogonalLoop=1;jettySize=auto;html=1;exitX=1;exitY=0.25;exitDx=0;exitDy=0;entryX=0;entryY=0.5;entryDx=0;entryDy=0;" edge="1" parent="1" source="nUtwPCLg_D4EzGsEK1XT-27" target="nUtwPCLg_D4EzGsEK1XT-72">
          <mxGeometry relative="1" as="geometry" />
        </mxCell>
        <mxCell id="nUtwPCLg_D4EzGsEK1XT-75" value="" style="group;flipV=1;rotation=-180;" vertex="1" connectable="0" parent="1">
          <mxGeometry x="580" y="522" width="30" height="120" as="geometry" />
        </mxCell>
        <mxCell id="nUtwPCLg_D4EzGsEK1XT-76" value="" style="shape=trapezoid;perimeter=trapezoidPerimeter;whiteSpace=wrap;html=1;fixedSize=1;rotation=-90;" vertex="1" parent="nUtwPCLg_D4EzGsEK1XT-75">
          <mxGeometry x="-50" y="50" width="120" height="20" as="geometry" />
        </mxCell>
        <mxCell id="nUtwPCLg_D4EzGsEK1XT-77" value="" style="rounded=0;whiteSpace=wrap;html=1;rotation=-180;" vertex="1" parent="nUtwPCLg_D4EzGsEK1XT-75">
          <mxGeometry x="20" y="90" width="10" height="10" as="geometry" />
        </mxCell>
        <mxCell id="nUtwPCLg_D4EzGsEK1XT-78" value="" style="rounded=0;whiteSpace=wrap;html=1;rotation=-180;" vertex="1" parent="nUtwPCLg_D4EzGsEK1XT-75">
          <mxGeometry x="20" y="20" width="10" height="10" as="geometry" />
        </mxCell>
        <mxCell id="nUtwPCLg_D4EzGsEK1XT-79" style="edgeStyle=orthogonalEdgeStyle;rounded=0;orthogonalLoop=1;jettySize=auto;html=1;exitX=1;exitY=0.25;exitDx=0;exitDy=0;entryX=0;entryY=0.25;entryDx=0;entryDy=0;" edge="1" parent="1" source="nUtwPCLg_D4EzGsEK1XT-27" target="nUtwPCLg_D4EzGsEK1XT-78">
          <mxGeometry relative="1" as="geometry" />
        </mxCell>
        <mxCell id="nUtwPCLg_D4EzGsEK1XT-82" style="edgeStyle=orthogonalEdgeStyle;rounded=0;orthogonalLoop=1;jettySize=auto;html=1;exitX=0;exitY=0.5;exitDx=0;exitDy=0;entryX=0;entryY=0.5;entryDx=0;entryDy=0;" edge="1" parent="1" source="nUtwPCLg_D4EzGsEK1XT-81" target="nUtwPCLg_D4EzGsEK1XT-77">
          <mxGeometry relative="1" as="geometry" />
        </mxCell>
        <mxCell id="nUtwPCLg_D4EzGsEK1XT-81" value="0" style="text;html=1;fillColor=none;align=center;verticalAlign=middle;whiteSpace=wrap;rounded=0;strokeColor=#000000;" vertex="1" parent="1">
          <mxGeometry x="690" y="607" width="40" height="20" as="geometry" />
        </mxCell>
        <mxCell id="nUtwPCLg_D4EzGsEK1XT-83" style="edgeStyle=orthogonalEdgeStyle;rounded=0;orthogonalLoop=1;jettySize=auto;html=1;exitX=0.5;exitY=0;exitDx=0;exitDy=0;entryX=0.5;entryY=1;entryDx=0;entryDy=0;entryPerimeter=0;" edge="1" parent="1" source="nUtwPCLg_D4EzGsEK1XT-76" target="nUtwPCLg_D4EzGsEK1XT-57">
          <mxGeometry relative="1" as="geometry" />
        </mxCell>
        <mxCell id="nUtwPCLg_D4EzGsEK1XT-90" value="NBitsB" style="text;html=1;strokeColor=none;fillColor=none;align=center;verticalAlign=middle;whiteSpace=wrap;rounded=0;" vertex="1" parent="1">
          <mxGeometry x="160" y="495" width="40" height="20" as="geometry" />
        </mxCell>
        <mxCell id="nUtwPCLg_D4EzGsEK1XT-91" value="" style="strokeWidth=2;html=1;shape=mxgraph.flowchart.merge_or_storage;whiteSpace=wrap;" vertex="1" parent="1">
          <mxGeometry x="490" y="295" width="60" height="30" as="geometry" />
        </mxCell>
        <mxCell id="nUtwPCLg_D4EzGsEK1XT-94" style="edgeStyle=orthogonalEdgeStyle;rounded=0;orthogonalLoop=1;jettySize=auto;html=1;exitX=1;exitY=0.5;exitDx=0;exitDy=0;entryX=0.7;entryY=0;entryDx=0;entryDy=0;entryPerimeter=0;" edge="1" parent="1" source="nUtwPCLg_D4EzGsEK1XT-92" target="nUtwPCLg_D4EzGsEK1XT-91">
          <mxGeometry relative="1" as="geometry" />
        </mxCell>
        <mxCell id="nUtwPCLg_D4EzGsEK1XT-92" value="aext_i[NBitsACC-NBitsA]" style="text;html=1;align=center;verticalAlign=middle;whiteSpace=wrap;rounded=0;strokeColor=#000000;" vertex="1" parent="1">
          <mxGeometry y="110" width="160" height="20" as="geometry" />
        </mxCell>
        <mxCell id="nUtwPCLg_D4EzGsEK1XT-93" style="edgeStyle=orthogonalEdgeStyle;rounded=0;orthogonalLoop=1;jettySize=auto;html=1;exitX=0.5;exitY=0;exitDx=0;exitDy=0;entryX=0.283;entryY=-0.033;entryDx=0;entryDy=0;entryPerimeter=0;" edge="1" parent="1" source="nUtwPCLg_D4EzGsEK1XT-8" target="nUtwPCLg_D4EzGsEK1XT-91">
          <mxGeometry relative="1" as="geometry" />
        </mxCell>
        <mxCell id="nUtwPCLg_D4EzGsEK1XT-95" value="ACC" style="text;html=1;strokeColor=none;fillColor=none;align=center;verticalAlign=middle;whiteSpace=wrap;rounded=0;" vertex="1" parent="1">
          <mxGeometry x="640" y="410" width="40" height="20" as="geometry" />
        </mxCell>
        <mxCell id="nUtwPCLg_D4EzGsEK1XT-98" style="edgeStyle=orthogonalEdgeStyle;rounded=0;orthogonalLoop=1;jettySize=auto;html=1;exitX=1;exitY=0.5;exitDx=0;exitDy=0;entryX=0;entryY=0.5;entryDx=0;entryDy=0;" edge="1" parent="1" source="nUtwPCLg_D4EzGsEK1XT-96" target="nUtwPCLg_D4EzGsEK1XT-97">
          <mxGeometry relative="1" as="geometry" />
        </mxCell>
        <mxCell id="nUtwPCLg_D4EzGsEK1XT-96" value="mode[14]" style="text;html=1;align=center;verticalAlign=middle;whiteSpace=wrap;rounded=0;strokeColor=#000000;" vertex="1" parent="1">
          <mxGeometry y="680" width="90" height="20" as="geometry" />
        </mxCell>
        <mxCell id="nUtwPCLg_D4EzGsEK1XT-99" style="edgeStyle=orthogonalEdgeStyle;rounded=0;orthogonalLoop=1;jettySize=auto;html=1;exitX=1;exitY=0.5;exitDx=0;exitDy=0;" edge="1" parent="1" source="nUtwPCLg_D4EzGsEK1XT-97">
          <mxGeometry relative="1" as="geometry">
            <mxPoint x="260" y="500" as="targetPoint" />
          </mxGeometry>
        </mxCell>
        <mxCell id="nUtwPCLg_D4EzGsEK1XT-100" style="edgeStyle=orthogonalEdgeStyle;rounded=0;orthogonalLoop=1;jettySize=auto;html=1;exitX=1;exitY=0.5;exitDx=0;exitDy=0;entryX=1;entryY=0.5;entryDx=0;entryDy=0;" edge="1" parent="1" source="nUtwPCLg_D4EzGsEK1XT-97" target="nUtwPCLg_D4EzGsEK1XT-8">
          <mxGeometry relative="1" as="geometry">
            <Array as="points">
              <mxPoint x="290" y="690" />
              <mxPoint x="290" y="300" />
            </Array>
          </mxGeometry>
        </mxCell>
        <mxCell id="nUtwPCLg_D4EzGsEK1XT-101" style="edgeStyle=orthogonalEdgeStyle;rounded=0;orthogonalLoop=1;jettySize=auto;html=1;exitX=1;exitY=0.5;exitDx=0;exitDy=0;entryX=0;entryY=0.25;entryDx=0;entryDy=0;" edge="1" parent="1" source="nUtwPCLg_D4EzGsEK1XT-97" target="nUtwPCLg_D4EzGsEK1XT-76">
          <mxGeometry relative="1" as="geometry" />
        </mxCell>
        <mxCell id="nUtwPCLg_D4EzGsEK1XT-102" style="edgeStyle=orthogonalEdgeStyle;rounded=0;orthogonalLoop=1;jettySize=auto;html=1;exitX=1;exitY=0.5;exitDx=0;exitDy=0;entryX=1;entryY=0.5;entryDx=0;entryDy=0;" edge="1" parent="1" source="nUtwPCLg_D4EzGsEK1XT-97" target="nUtwPCLg_D4EzGsEK1XT-63">
          <mxGeometry relative="1" as="geometry">
            <Array as="points">
              <mxPoint x="570" y="690" />
            </Array>
          </mxGeometry>
        </mxCell>
        <mxCell id="nUtwPCLg_D4EzGsEK1XT-103" style="edgeStyle=orthogonalEdgeStyle;rounded=0;orthogonalLoop=1;jettySize=auto;html=1;exitX=1;exitY=0.5;exitDx=0;exitDy=0;entryX=0.5;entryY=1;entryDx=0;entryDy=0;" edge="1" parent="1" source="nUtwPCLg_D4EzGsEK1XT-97" target="nUtwPCLg_D4EzGsEK1XT-72">
          <mxGeometry relative="1" as="geometry" />
        </mxCell>
        <mxCell id="nUtwPCLg_D4EzGsEK1XT-104" style="edgeStyle=orthogonalEdgeStyle;rounded=0;orthogonalLoop=1;jettySize=auto;html=1;exitX=1;exitY=0.5;exitDx=0;exitDy=0;entryX=1;entryY=0.5;entryDx=0;entryDy=0;" edge="1" parent="1" source="nUtwPCLg_D4EzGsEK1XT-97" target="nUtwPCLg_D4EzGsEK1XT-49">
          <mxGeometry relative="1" as="geometry" />
        </mxCell>
        <mxCell id="nUtwPCLg_D4EzGsEK1XT-97" value="decoder" style="text;html=1;fillColor=none;align=center;verticalAlign=middle;whiteSpace=wrap;rounded=0;strokeColor=#000000;" vertex="1" parent="1">
          <mxGeometry x="160" y="665" width="70" height="50" as="geometry" />
        </mxCell>
        <mxCell id="nUtwPCLg_D4EzGsEK1XT-105" value="z_o[NBitsACC]" style="text;html=1;align=center;verticalAlign=middle;whiteSpace=wrap;rounded=0;strokeColor=#000000;" vertex="1" parent="1">
          <mxGeometry x="960" y="396" width="90" height="20" as="geometry" />
        </mxCell>
        <mxCell id="nUtwPCLg_D4EzGsEK1XT-106" style="edgeStyle=orthogonalEdgeStyle;rounded=0;orthogonalLoop=1;jettySize=auto;html=1;exitX=0.5;exitY=0;exitDx=0;exitDy=0;entryX=0;entryY=0.5;entryDx=0;entryDy=0;" edge="1" parent="1" source="nUtwPCLg_D4EzGsEK1XT-49" target="nUtwPCLg_D4EzGsEK1XT-105">
          <mxGeometry relative="1" as="geometry" />
        </mxCell>
        <mxCell id="nUtwPCLg_D4EzGsEK1XT-108" style="edgeStyle=orthogonalEdgeStyle;rounded=0;orthogonalLoop=1;jettySize=auto;html=1;exitX=1;exitY=0.5;exitDx=0;exitDy=0;entryX=0;entryY=0.75;entryDx=0;entryDy=0;fillColor=#0050ef;strokeColor=#001DBC;" edge="1" parent="1" source="nUtwPCLg_D4EzGsEK1XT-107" target="nUtwPCLg_D4EzGsEK1XT-22">
          <mxGeometry relative="1" as="geometry">
            <Array as="points">
              <mxPoint x="110" y="785" />
              <mxPoint x="110" y="553" />
            </Array>
          </mxGeometry>
        </mxCell>
        <mxCell id="nUtwPCLg_D4EzGsEK1XT-109" style="edgeStyle=orthogonalEdgeStyle;rounded=0;orthogonalLoop=1;jettySize=auto;html=1;exitX=1;exitY=0.5;exitDx=0;exitDy=0;entryX=0;entryY=0.25;entryDx=0;entryDy=0;fillColor=#0050ef;strokeColor=#001DBC;" edge="1" parent="1" source="nUtwPCLg_D4EzGsEK1XT-107" target="nUtwPCLg_D4EzGsEK1XT-2">
          <mxGeometry relative="1" as="geometry">
            <Array as="points">
              <mxPoint x="110" y="785" />
              <mxPoint x="110" y="338" />
            </Array>
          </mxGeometry>
        </mxCell>
        <mxCell id="nUtwPCLg_D4EzGsEK1XT-110" style="edgeStyle=orthogonalEdgeStyle;rounded=0;orthogonalLoop=1;jettySize=auto;html=1;exitX=1;exitY=0.5;exitDx=0;exitDy=0;entryX=0;entryY=0.5;entryDx=0;entryDy=0;fillColor=#0050ef;strokeColor=#001DBC;" edge="1" parent="1" source="nUtwPCLg_D4EzGsEK1XT-107" target="nUtwPCLg_D4EzGsEK1XT-28">
          <mxGeometry relative="1" as="geometry">
            <Array as="points">
              <mxPoint x="630" y="785" />
              <mxPoint x="630" y="515" />
            </Array>
          </mxGeometry>
        </mxCell>
        <mxCell id="nUtwPCLg_D4EzGsEK1XT-107" value="" style="triangle;whiteSpace=wrap;html=1;container=0;" vertex="1" parent="1">
          <mxGeometry y="770" width="20" height="30" as="geometry" />
        </mxCell>
        <mxCell id="nUtwPCLg_D4EzGsEK1XT-113" style="edgeStyle=orthogonalEdgeStyle;rounded=0;orthogonalLoop=1;jettySize=auto;html=1;exitX=1;exitY=0.5;exitDx=0;exitDy=0;entryX=0.5;entryY=1;entryDx=0;entryDy=0;fillColor=#d80073;strokeColor=#A50040;" edge="1" parent="1" source="nUtwPCLg_D4EzGsEK1XT-112" target="nUtwPCLg_D4EzGsEK1XT-21">
          <mxGeometry relative="1" as="geometry">
            <Array as="points">
              <mxPoint x="130" y="740" />
              <mxPoint x="130" y="590" />
              <mxPoint x="180" y="590" />
            </Array>
          </mxGeometry>
        </mxCell>
        <mxCell id="nUtwPCLg_D4EzGsEK1XT-114" style="edgeStyle=orthogonalEdgeStyle;rounded=0;orthogonalLoop=1;jettySize=auto;html=1;exitX=1;exitY=0.5;exitDx=0;exitDy=0;entryX=0.5;entryY=1;entryDx=0;entryDy=0;fillColor=#d80073;strokeColor=#A50040;" edge="1" parent="1" source="nUtwPCLg_D4EzGsEK1XT-112" target="nUtwPCLg_D4EzGsEK1XT-27">
          <mxGeometry relative="1" as="geometry">
            <Array as="points">
              <mxPoint x="660" y="740" />
            </Array>
          </mxGeometry>
        </mxCell>
        <mxCell id="nUtwPCLg_D4EzGsEK1XT-115" style="edgeStyle=orthogonalEdgeStyle;rounded=0;orthogonalLoop=1;jettySize=auto;html=1;exitX=1;exitY=0.5;exitDx=0;exitDy=0;entryX=0.5;entryY=1;entryDx=0;entryDy=0;fillColor=#d80073;strokeColor=#A50040;" edge="1" parent="1" source="nUtwPCLg_D4EzGsEK1XT-112" target="nUtwPCLg_D4EzGsEK1XT-1">
          <mxGeometry relative="1" as="geometry">
            <Array as="points">
              <mxPoint x="130" y="740" />
              <mxPoint x="130" y="380" />
              <mxPoint x="180" y="380" />
            </Array>
          </mxGeometry>
        </mxCell>
        <mxCell id="nUtwPCLg_D4EzGsEK1XT-112" value="resetn_i" style="text;html=1;align=center;verticalAlign=middle;whiteSpace=wrap;rounded=0;strokeColor=#000000;" vertex="1" parent="1">
          <mxGeometry y="730" width="90" height="20" as="geometry" />
        </mxCell>
      </root>
    </mxGraphModel>
  </diagram>
</mxfile>
